<svg xmlns="http://www.w3.org/2000/svg" width="985.91" height="985.91" viewBox="0 0 985.91 985.91"><defs><style>.cls-1{fill:#f9c;stroke:#3c6;stroke-width:53px;}.cls-1,.cls-3,.cls-6{stroke-miterlimit:10;}.cls-2{fill:#3c6;}.cls-3,.cls-5{fill:#fff;}.cls-3,.cls-6{stroke:#f9c;}.cls-3{stroke-width:21px;}.cls-4{fill:#6cf;}.cls-6{fill:none;stroke-width:28px;}</style></defs><g id="Background"><circle class="cls-1" cx="492.95" cy="492.95" r="466.45"/></g><g id="TempBack"><path class="cls-2" d="M160.18,483.68l70.12,0a45.68,45.68,0,0,0,37.53-19.43,175.25,175.25,0,0,1,28.47-31.49c20.75-18.1,46.3-32.49,75.95-42.78,36.58-12.68,79.56-19.11,127.75-19.11s91.17,6.43,127.75,19.11c29.65,10.29,55.2,24.68,76,42.78a174.78,174.78,0,0,1,28.49,31.53,45.76,45.76,0,0,0,37.54,19.45h70.42c44.8,0,74.18-49.33,50.4-87.3-14-22.4-44.25-65.32-57.66-88.63-13-22.65-35.51-70.91-47.92-94.25-21-39.57-78.4-38.81-100.8,0l-46.81,81.06a12.22,12.22,0,0,1-16.83,4.43c-2.25-1.36-4.54-2.67-6.85-4a12.13,12.13,0,0,1-4.53-16.67L656,197.29c22.4-38.8-5.63-88.91-50.4-87.3-26.42,1-78.7,5.67-105.59,5.63-26.14,0-79.17-4.7-105.59-5.63-44.77-1.57-72.8,48.5-50.4,87.3l46.76,81a12.31,12.31,0,0,1-4.5,16.81l-6.67,3.85a12.2,12.2,0,0,1-16.67-4.47l-46.71-80.94c-22.4-38.81-79.81-39.6-100.81,0-12.39,23.35-34.45,71-47.93,94.25-13.11,22.62-43.67,66.2-57.68,88.61C86,434.36,115.38,483.67,160.18,483.68Z" transform="translate(-7.05 -7.05)"/><path class="cls-2" d="M840.15,516.29H769.7a45.74,45.74,0,0,0-37.53,19.44,174.56,174.56,0,0,1-28.47,31.5c-20.75,18.1-46.3,32.49-76,42.78-36.58,12.68-79.56,19.11-127.75,19.11S408.83,622.68,372.25,610c-29.65-10.29-55.2-24.68-75.95-42.78a174.4,174.4,0,0,1-28.49-31.53,45.74,45.74,0,0,0-37.55-19.46H159.85c-44.8,0-74.19,49.32-50.41,87.29,14,22.41,44.24,65.33,57.65,88.63,13,22.66,35.51,70.92,47.91,94.27,21,39.56,78.4,38.81,100.8,0l46.87-81.15a12.13,12.13,0,0,1,17-4.23c2.2,1.36,4.46,2.62,6.7,3.91a12.15,12.15,0,0,1,4.47,16.63L344,802.69c-22.4,38.8,5.62,88.91,50.4,87.31,26.41-1,78.69-5.66,105.58-5.62,26.14,0,79.17,4.71,105.59,5.64,44.77,1.58,72.81-48.49,50.41-87.3l-46.83-81.13a12.13,12.13,0,0,1,4.54-16.67c2.3-1.28,4.59-2.6,6.84-4a12.22,12.22,0,0,1,16.83,4.43l46.8,81.06c22.4,38.81,79.81,39.59,100.8,0,12.39-23.35,34.45-71,47.93-94.25,13.1-22.62,43.66-66.21,57.67-88.62C914.3,565.6,885,516.29,840.15,516.29Z" transform="translate(-7.05 -7.05)"/></g><g id="EyeBack"><path class="cls-3" d="M739,500S706.14,618.61,500,618.61,261,500,261,500s32.84-118.61,239-118.61S739,500,739,500Z" transform="translate(-7.05 -7.05)"/></g><g id="Iris"><circle class="cls-4" cx="492.95" cy="492.95" r="118.61"/><rect class="cls-5" x="489.73" y="464.91" width="76.2" height="20.06" rx="10.03" transform="translate(483.39 -241.17) rotate(45)"/><rect class="cls-5" x="539.69" y="440.24" width="20.06" height="20.06" rx="7.34" transform="translate(472.36 -263.88) rotate(45)"/><rect class="cls-5" x="489.97" y="489.97" width="20.06" height="20.06" rx="7.34" transform="translate(492.95 -214.15) rotate(45)"/></g><g id="EyeStroke"><path class="cls-6" d="M734.3,500S702.1,618.61,500,618.61,265.7,500,265.7,500,297.9,381.39,500,381.39,734.3,500,734.3,500Z" transform="translate(-7.05 -7.05)"/></g></svg>