<svg xmlns="http://www.w3.org/2000/svg" width="1094.34" height="1094.34" viewBox="0 0 1094.34 1094.34"><defs><style>.cls-1{fill:#f9c;stroke:#3c6;stroke-width:80px;}.cls-1,.cls-3,.cls-6{stroke-miterlimit:10;}.cls-2{fill:#3c6;}.cls-3,.cls-5{fill:#fff;}.cls-3,.cls-6{stroke:#f9c;}.cls-3{stroke-width:21px;}.cls-4{fill:#6cf;}.cls-6{fill:none;stroke-width:28px;}</style></defs><g id="Background"><circle class="cls-1" cx="547.17" cy="547.17" r="507.17"/></g><g id="TempBack"><path class="cls-2" d="M160.18,483.68l70.12,0a45.68,45.68,0,0,0,37.53-19.43,175.25,175.25,0,0,1,28.47-31.49c20.75-18.1,46.3-32.49,75.95-42.78,36.58-12.68,79.56-19.11,127.75-19.11s91.17,6.43,127.75,19.11c29.65,10.29,55.2,24.68,76,42.78a174.78,174.78,0,0,1,28.49,31.53,45.76,45.76,0,0,0,37.54,19.45h70.42c44.8,0,74.18-49.33,50.4-87.3-14-22.4-44.25-65.32-57.66-88.63-13-22.65-35.51-70.91-47.92-94.25-21-39.57-78.4-38.81-100.8,0l-44.93,77.82a16,16,0,0,1-21.94,5.76L617,297a16,16,0,0,1-6-21.87L656,197.29c22.4-38.8-5.63-88.91-50.4-87.3-26.42,1-78.7,5.67-105.59,5.63-26.14,0-79.17-4.7-105.59-5.63-44.77-1.57-72.8,48.5-50.4,87.3l44.9,77.77a16,16,0,0,1-5.86,21.88l-.19.11a16,16,0,0,1-21.81-5.84l-44.83-77.68c-22.4-38.81-79.81-39.6-100.81,0-12.39,23.35-34.45,71-47.93,94.25-13.11,22.62-43.67,66.2-57.68,88.61C86,434.36,115.38,483.67,160.18,483.68Z" transform="translate(47.17 47.17)"/><path class="cls-2" d="M840.15,516.29H769.7a45.74,45.74,0,0,0-37.53,19.44,174.56,174.56,0,0,1-28.47,31.5c-20.75,18.1-46.3,32.49-76,42.78-36.58,12.68-79.56,19.11-127.75,19.11S408.83,622.68,372.25,610c-29.65-10.29-55.2-24.68-75.95-42.78a174.4,174.4,0,0,1-28.49-31.53,45.74,45.74,0,0,0-37.55-19.46H159.85c-44.8,0-74.19,49.32-50.41,87.29,14,22.41,44.24,65.33,57.65,88.63,13,22.66,35.51,70.92,47.91,94.27,21,39.56,78.4,38.81,100.8,0l45-77.85a16,16,0,0,1,21.82-5.78l.5.28a15.94,15.94,0,0,1,5.86,21.77l-45,77.85c-22.4,38.8,5.62,88.91,50.4,87.31,26.41-1,78.69-5.66,105.58-5.62,26.14,0,79.17,4.71,105.59,5.64,44.77,1.58,72.81-48.49,50.41-87.3L611,724.87A16,16,0,0,1,617,703.05l.28-.16a16.06,16.06,0,0,1,22,5.78l44.9,77.78c22.4,38.81,79.81,39.59,100.8,0,12.39-23.35,34.45-71,47.93-94.25,13.1-22.62,43.66-66.21,57.67-88.62C914.3,565.6,885,516.29,840.15,516.29Z" transform="translate(47.17 47.17)"/></g><g id="EyeBack"><path class="cls-3" d="M739,500S706.14,618.61,500,618.61,261,500,261,500s32.84-118.61,239-118.61S739,500,739,500Z" transform="translate(47.17 47.17)"/></g><g id="Iris"><circle class="cls-4" cx="547.17" cy="547.17" r="118.61"/></g><g id="Sparkle"><path class="cls-5" d="M538.45,417.66h0a50,50,0,0,1-50,50h0c27.62,0,50,44.58,50,72.19h0c0-27.61,22.39-72.19,50-72.19h0A50,50,0,0,1,538.45,417.66Z" transform="translate(47.17 47.17)"/></g><g id="EyeStroke"><path class="cls-6" d="M723.19,476.48a45,45,0,0,1,0,47C702,558.11,644.34,618.61,500,618.61c-143.66,0-201.47-59.93-222.89-94.59a45.72,45.72,0,0,1,0-48c21.42-34.66,79.23-94.59,222.89-94.59C644.34,381.39,702,441.89,723.19,476.48Z" transform="translate(47.17 47.17)"/></g></svg>