<svg xmlns="http://www.w3.org/2000/svg" width="985.91" height="985.91" viewBox="0 0 985.91 985.91"><defs><style>.cls-1{fill:#f9c;stroke-width:53px;}.cls-1,.cls-4{stroke:#3c6;}.cls-1,.cls-2,.cls-4,.cls-5,.cls-8{stroke-miterlimit:10;}.cls-2,.cls-3,.cls-4{fill:#3c6;}.cls-2{stroke:#000;}.cls-4,.cls-5{stroke-width:21px;}.cls-5,.cls-7{fill:#fff;}.cls-5,.cls-8{stroke:#f9c;}.cls-6{fill:#6cf;}.cls-8{fill:none;stroke-width:28px;}</style></defs><g id="Background"><circle class="cls-1" cx="492.95" cy="492.95" r="466.45"/></g><g id="Pedals"><path class="cls-2" d="M293.61,110" transform="translate(-7.05 -7.05)"/><path class="cls-3" d="M500,467.47,656,197.29c22.4-38.8-5.63-88.91-50.4-87.3-26.42,1-78.7,5.67-105.59,5.63-26.14,0-79.17-4.7-105.59-5.63-44.77-1.57-72.8,48.5-50.4,87.3L500,467.47" transform="translate(-7.05 -7.05)"/><path class="cls-2" d="M500,467.47" transform="translate(-7.05 -7.05)"/><path class="cls-2" d="M500,467.47" transform="translate(-7.05 -7.05)"/><path class="cls-2" d="M500,467.47" transform="translate(-7.05 -7.05)"/><path class="cls-2" d="M500,467.47" transform="translate(-7.05 -7.05)"/><path class="cls-2" d="M706.39,110" transform="translate(-7.05 -7.05)"/><path class="cls-2" d="M734.57,126.26" transform="translate(-7.05 -7.05)"/><path class="cls-3" d="M528.17,483.74h312c44.8,0,74.18-49.33,50.4-87.3-14-22.4-44.25-65.32-57.66-88.63-13-22.65-35.51-70.91-47.92-94.25-21-39.57-78.4-38.81-100.8,0l-156,270.18" transform="translate(-7.05 -7.05)"/><path class="cls-2" d="M528.17,483.74" transform="translate(-7.05 -7.05)"/><path class="cls-2" d="M528.17,483.74" transform="translate(-7.05 -7.05)"/><path class="cls-2" d="M528.17,483.74" transform="translate(-7.05 -7.05)"/><path class="cls-2" d="M528.17,483.74" transform="translate(-7.05 -7.05)"/><path class="cls-2" d="M941,483.75" transform="translate(-7.05 -7.05)"/><path class="cls-2" d="M941,516.29" transform="translate(-7.05 -7.05)"/><path class="cls-3" d="M528.17,516.26l156,270.19c22.4,38.81,79.81,39.59,100.8,0,12.39-23.35,34.45-71,47.93-94.25,13.1-22.62,43.66-66.21,57.67-88.62,23.76-38-5.59-87.3-50.39-87.3l-312,0" transform="translate(-7.05 -7.05)"/><path class="cls-2" d="M528.17,516.26" transform="translate(-7.05 -7.05)"/><path class="cls-2" d="M528.17,516.26" transform="translate(-7.05 -7.05)"/><path class="cls-2" d="M528.17,516.26" transform="translate(-7.05 -7.05)"/><path class="cls-2" d="M528.17,516.26" transform="translate(-7.05 -7.05)"/><path class="cls-2" d="M734.54,873.76" transform="translate(-7.05 -7.05)"/><path class="cls-2" d="M706.35,890" transform="translate(-7.05 -7.05)"/><path class="cls-3" d="M500,532.53,344,802.69c-22.4,38.8,5.62,88.91,50.4,87.31,26.41-1,78.69-5.66,105.58-5.62,26.14,0,79.17,4.71,105.59,5.64,44.77,1.58,72.81-48.49,50.41-87.3L500,532.53" transform="translate(-7.05 -7.05)"/><path class="cls-2" d="M500,532.53" transform="translate(-7.05 -7.05)"/><path class="cls-2" d="M500,532.53" transform="translate(-7.05 -7.05)"/><path class="cls-2" d="M500,532.53" transform="translate(-7.05 -7.05)"/><path class="cls-2" d="M500,532.53" transform="translate(-7.05 -7.05)"/><path class="cls-2" d="M293.57,890" transform="translate(-7.05 -7.05)"/><path class="cls-2" d="M59.05,483.66" transform="translate(-7.05 -7.05)"/><path class="cls-3" d="M471.83,483.73,315.89,213.53c-22.39-38.81-79.81-39.6-100.81,0-12.39,23.35-34.45,71-47.93,94.25-13.1,22.61-43.67,66.2-57.68,88.61-23.76,38,5.58,87.3,50.38,87.31l312,.05" transform="translate(-7.05 -7.05)"/><path class="cls-2" d="M471.83,483.73" transform="translate(-7.05 -7.05)"/><path class="cls-2" d="M471.83,483.73" transform="translate(-7.05 -7.05)"/><path class="cls-2" d="M471.83,483.73" transform="translate(-7.05 -7.05)"/><path class="cls-2" d="M471.83,483.73" transform="translate(-7.05 -7.05)"/><path class="cls-2" d="M265.5,126.22" transform="translate(-7.05 -7.05)"/><path class="cls-2" d="M265.39,873.71" transform="translate(-7.05 -7.05)"/><path class="cls-3" d="M471.83,516.26l-312,0c-44.8,0-74.19,49.32-50.41,87.29,14,22.41,44.24,65.33,57.65,88.63,13,22.66,35.51,70.92,47.91,94.27,21,39.56,78.4,38.81,100.8,0l156-270.16" transform="translate(-7.05 -7.05)"/><path class="cls-2" d="M471.83,516.26" transform="translate(-7.05 -7.05)"/><path class="cls-2" d="M471.83,516.26" transform="translate(-7.05 -7.05)"/><path class="cls-2" d="M471.83,516.26" transform="translate(-7.05 -7.05)"/><path class="cls-2" d="M471.83,516.26" transform="translate(-7.05 -7.05)"/><path class="cls-2" d="M59.05,516.2" transform="translate(-7.05 -7.05)"/></g><g id="EyeLid"><circle class="cls-4" cx="492.95" cy="492.95" r="234.3"/></g><g id="EyeBack"><path class="cls-5" d="M739,500S706.14,618.61,500,618.61,261,500,261,500s32.84-118.61,239-118.61S739,500,739,500Z" transform="translate(-7.05 -7.05)"/></g><g id="Iris"><circle class="cls-6" cx="492.95" cy="492.95" r="118.61"/><rect class="cls-7" x="489.73" y="464.91" width="76.2" height="20.06" rx="10.03" transform="translate(483.39 -241.17) rotate(45)"/><rect class="cls-7" x="539.69" y="440.24" width="20.06" height="20.06" rx="7.34" transform="translate(472.36 -263.88) rotate(45)"/><rect class="cls-7" x="489.97" y="489.97" width="20.06" height="20.06" rx="7.34" transform="translate(492.95 -214.15) rotate(45)"/></g><g id="EyeStroke"><path class="cls-8" d="M734.3,500S702.1,618.61,500,618.61,265.7,500,265.7,500,297.9,381.39,500,381.39,734.3,500,734.3,500Z" transform="translate(-7.05 -7.05)"/></g></svg>